<svg preserveAspectRatio="xMidYMid meet" viewBox="245 137.20000000000002 486.08 501.76" xmlns="http://www.w3.org/2000/svg" version="1.0" style="max-height: 500px" width="486.08" height="501.76">

<g stroke="none" fill="#000000" transform="translate(0.000000,980.000000) scale(0.100000,-0.100000)">
<path d="M2855 8313 c-104 -32 -193 -127 -222 -236 -11 -42 -13 -442 -13&#xA;-2158 0 -2077 0 -2108 20 -2171 22 -72 77 -143 142 -184 90 -57 -20 -54 2144&#xA;-52 2281 3 2039 -8 2151 103 52 53 64 71 82 131 l21 69 -2 2130 -3 2130 -33&#xA;67 c-37 76 -82 120 -162 157 l-55 26 -2010 2 c-1783 1 -2016 0 -2060 -14z&#xA;m4223 -2598 c2 -1327 0 -1885 -8 -1921 -13 -61 -63 -124 -124 -157 l-41 -22&#xA;-2005 0 c-1937 0 -2006 1 -2040 19 -49 26 -88 64 -113 111 l-22 40 -3 1890&#xA;c-1 1039 0 1896 3 1902 3 11 440 13 2177 11 l2173 -3 3 -1870z"/>
<path d="M4612 7197 l-142 -142 143 -143 142 -142 143 143 142 142 -140 140&#xA;c-78 77 -142 141 -143 142 -2 1 -67 -62 -145 -140z"/>
<path d="M3062 7058 l3 -203 613 -3 612 -2 0 205 0 205 -615 0 -615 0 2 -202z"/>
<path d="M5280 7098 c-28 -15 -38 -52 -20 -74 10 -11 55 -14 251 -14 l239 0 0&#xA;-733 c0 -698 1 -735 18 -750 24 -22 45 -21 65 1 16 17 17 86 17 784 0 700 -1&#xA;767 -17 779 -23 20 -517 26 -553 7z"/>
<path d="M3782 6028 l3 -203 613 -2 612 -3 0 205 0 205 -615 0 -615 0 2 -202z"/>
<path d="M5652 5127 l-142 -142 143 -143 142 -142 143 143 142 142 -123 125&#xA;c-68 69 -132 133 -143 142 -19 17 -24 13 -162 -125z"/>
<path d="M3062 4988 l3 -203 1123 -3 1122 -2 0 205 0 205 -1125 0 -1125 0 2&#xA;-202z"/>
<path d="M3990 4230 l0 -200 1088 2 1087 3 0 195 0 195 -1087 3 -1088 2 0&#xA;-200z"/>
<path d="M4253 3060 c-138 -29 -231 -137 -254 -295 -26 -172 42 -320 176 -386&#xA;153 -75 336 -34 424 95 49 71 64 135 59 249 -5 126 -33 193 -109 261 -74 66&#xA;-195 97 -296 76z m187 -104 c146 -71 175 -342 50 -466 -93 -94 -224 -95 -320&#xA;-2 -55 53 -80 119 -80 208 0 119 32 195 105 246 70 50 162 55 245 14z"/>
<path d="M6170 3060 c-190 -33 -296 -206 -262 -427 28 -180 124 -278 284 -290&#xA;101 -8 175 14 235 70 41 37 93 123 93 153 0 6 -20 15 -44 21 l-43 10 -26 -56&#xA;c-35 -77 -101 -121 -181 -121 -137 0 -226 110 -226 280 0 180 81 281 224 282&#xA;89 0 140 -31 180 -110 12 -23 22 -31 34 -28 9 3 29 8 45 12 15 3 27 8 27 10 0&#xA;3 -11 26 -25 53 -54 108 -181 165 -315 141z"/>
<path d="M2660 2700 l0 -350 45 0 44 0 3 143 3 142 150 5 c128 5 156 9 190 27&#xA;139 75 133 299 -10 364 -34 16 -67 19 -232 19 l-193 0 0 -350z m376 255 c70&#xA;-29 85 -143 25 -197 -36 -32 -83 -40 -211 -36 l-95 3 -3 109 c-1 61 0 116 2&#xA;123 8 19 234 18 282 -2z"/>
<path d="M3312 2703 l3 -348 48 -3 47 -3 0 155 0 156 84 0 c112 0 129 -12 239&#xA;-178 l87 -132 55 0 c30 0 55 2 55 5 0 4 -92 150 -139 219 -14 22 -43 52 -65&#xA;68 -24 17 -33 29 -25 32 81 24 113 42 139 77 35 49 45 101 29 163 -15 59 -61&#xA;110 -114 125 -23 6 -125 11 -243 11 l-202 0 2 -347z m367 266 c113 -24 139&#xA;-146 43 -202 -26 -15 -60 -20 -172 -24 l-140 -6 0 115 c0 63 3 118 7 121 10&#xA;11 207 8 262 -4z"/>
<path d="M5028 2766 c-3 -282 -3 -285 -26 -309 -30 -32 -74 -40 -117 -23 -37&#xA;16 -50 34 -60 89 -6 30 -12 37 -30 37 -44 0 -55 -10 -55 -49 0 -20 10 -57 23&#xA;-81 67 -133 308 -113 347 30 5 19 10 160 10 313 l0 277 -44 0 -45 0 -3 -284z"/>
<path d="M5280 2700 l0 -350 260 0 260 0 0 45 0 45 -212 -1 -213 -1 -3 116 -3&#xA;116 196 0 196 0 -3 43 -3 42 -192 3 -193 2 0 105 0 105 205 0 205 0 0 40 0 40&#xA;-250 0 -250 0 0 -350z"/>
<path d="M6582 3013 l3 -38 112 -3 113 -3 2 -307 3 -307 45 0 45 0 3 308 2&#xA;307 115 0 115 0 0 40 0 40 -281 0 -280 0 3 -37z"/>
<path d="M3660 1820 l0 -350 45 0 45 0 0 140 0 140 88 0 c261 1 343 49 350&#xA;205 3 58 0 80 -17 113 -44 86 -96 102 -333 102 l-178 0 0 -350z m387 244 c15&#xA;-11 34 -39 42 -61 13 -35 13 -46 0 -78 -26 -69 -52 -80 -205 -83 l-134 -4 0&#xA;120 c0 65 3 122 7 126 4 4 65 6 135 4 110 -3 130 -6 155 -24z"/>
<path d="M4310 1820 l0 -350 220 0 220 0 0 40 0 40 -175 0 -175 0 0 310 0 310&#xA;-45 0 -45 0 0 -350z"/>
<path d="M5040 2148 c-10 -24 -180 -466 -231 -601 l-29 -78 52 3 51 3 36 102&#xA;36 103 147 0 146 0 41 -102 40 -103 55 -3 54 -3 -60 148 c-34 81 -98 238 -143&#xA;348 l-81 200 -52 3 c-46 3 -53 0 -62 -20z m96 -166 c17 -48 43 -117 57 -154&#xA;l26 -68 -114 0 c-63 0 -115 4 -115 8 0 5 18 56 40 113 21 58 45 126 52 152 6&#xA;25 14 44 17 41 3 -3 19 -44 37 -92z"/>
<path d="M5510 1820 l0 -350 45 0 45 0 2 271 3 272 180 -271 180 -272 48 0 47&#xA;0 0 350 0 350 -45 0 -45 0 -2 -267 -3 -268 -179 268 -179 267 -49 0 -48 0 0&#xA;-350z"/>
</g>
</svg>