<svg version="1.0" xmlns="http://www.w3.org/2000/svg" preserveAspectRatio="xMidYMid meet" viewBox="184.23 124 611.52 562.02">

<g transform="translate(0.000000,980.000000) scale(0.100000,-0.100000)" fill="#000000" stroke="none">
<path d="M2138 8537 c-14 -12 -31 -32 -37 -44 -8 -15 -11 -179 -11 -519 0 -483 1 -498 20 -530 12 -18 31 -36 43 -40 38 -12 250 -9 274 4 51 28 53 45 53 417 l0 345 348 0 c326 0 349 1 379 20 40 24 53 67 53 175 0 108 -13 151 -53 175 -31 19 -54 20 -537 20 l-505 0 -27 -23z"/>
<path d="M6593 8540 c-40 -24 -53 -67 -53 -175 0 -108 13 -151 53 -175 30 -19 53 -20 380 -20 l347 0 0 -345 c0 -368 3 -390 49 -415 11 -5 77 -10 148 -10 208 1 193 -45 193 575 0 482 -1 501 -20 533 -11 18 -32 37 -46 42 -15 6 -223 10 -522 10 -475 0 -498 -1 -529 -20z"/>
<path d="M4764 7786 c-166 -52 -287 -180 -331 -349 -47 -183 44 -490 191 -645 61 -63 158 -122 203 -122 l23 0 0 203 0 204 -37 24 c-131 87 -72 289 85 289 62 0 108 -25 137 -75 45 -76 25 -166 -48 -214 l-37 -24 0 -204 0 -203 23 0 c13 0 51 14 85 31 164 82 304 337 319 584 10 155 -35 275 -141 380 -63 62 -141 107 -217 124 -60 14 -205 12 -255 -3z"/>
<path d="M4545 6513 c-178 -15 -629 -65 -1085 -119 -300 -35 -606 -71 -680 -80 -829 -95 -836 -96 -893 -164 -97 -115 -26 -316 122 -349 26 -6 467 -20 996 -31 1009 -23 997 -22 1022 -71 14 -27 223 -1734 223 -1818 0 -75 30 -136 81 -161 37 -19 61 -20 569 -20 508 0 532 1 569 20 51 25 81 86 81 161 0 71 207 1781 220 1814 20 53 3 52 1025 75 529 11 970 25 996 31 148 33 219 234 122 349 -52 63 -77 69 -477 115 -204 24 -659 78 -1011 119 -693 82 -945 110 -1155 127 -131 11 -139 11 -253 -15 l-117 -26 -111 25 c-105 23 -147 27 -244 18z m444 -270 c70 -52 90 -132 48 -194 -24 -37 -97 -79 -137 -79 -40 0 -113 42 -137 79 -38 57 -27 126 30 179 48 45 145 52 196 15z m-1315 -54 c93 -64 87 -184 -13 -243 -109 -63 -259 31 -237 148 8 43 49 94 91 112 42 20 117 12 159 -17z m-1234 -21 c100 -51 120 -161 43 -232 -61 -57 -157 -59 -218 -4 -88 77 -62 203 52 243 53 20 72 18 123 -7z m4080 -6 c119 -88 77 -249 -71 -268 -34 -4 -54 0 -88 18 -62 32 -86 68 -86 128 0 60 24 96 86 128 51 27 117 24 159 -6z m-1854 -49 l-1 -48 -330 -12 c-182 -6 -373 -11 -425 -12 l-95 -1 -1 44 -1 44 111 6 c115 6 534 22 667 24 l76 2 -1 -47z m684 32 c80 -3 285 -12 455 -20 171 -8 329 -15 353 -15 l42 0 0 -51 0 -51 -62 6 c-35 3 -124 8 -198 11 -173 7 -309 13 -545 25 -104 6 -207 10 -227 10 l-37 0 4 48 c2 26 4 48 4 50 1 2 16 1 34 -2 17 -3 97 -8 177 -11z m2179 -15 c50 -25 86 -94 77 -145 -13 -70 -83 -125 -158 -125 -88 0 -158 64 -158 145 0 112 131 180 239 125z m-4181 -63 l3 -47 -83 -1 c-46 -1 -94 -3 -108 -4 -14 -2 -144 -6 -290 -10 l-265 -7 0 46 c0 44 1 46 30 47 17 0 174 6 350 13 176 7 329 12 340 11 16 -2 21 -10 23 -48z m3763 -4 l106 -6 -5 -46 c-2 -25 -5 -46 -6 -47 0 0 -109 5 -241 12 -132 7 -254 13 -271 13 -31 1 -31 2 -30 47 l1 47 170 -7 c94 -3 218 -9 276 -13z m-2161 -923 l0 -760 -50 0 -50 0 0 760 0 760 50 0 50 0 0 -760z m20 -852 c25 -13 55 -38 67 -57 47 -70 18 -156 -67 -198 -24 -13 -56 -23 -70 -23 -40 0 -113 42 -137 79 -47 70 -18 156 67 199 24 12 56 22 70 22 14 0 46 -10 70 -22z"/>
<path d="M2162 4099 c-20 -6 -40 -22 -52 -42 -19 -31 -20 -53 -20 -530 0 -433 2 -502 16 -528 30 -58 36 -59 567 -59 319 0 495 4 515 11 53 18 66 50 70 174 3 91 0 116 -15 145 -31 59 -34 60 -415 60 l-348 0 0 345 c0 385 -1 394 -65 421 -39 16 -200 18 -253 3z"/>
<path d="M7383 4095 c-61 -26 -63 -37 -63 -420 l0 -345 -347 0 c-382 0 -385 -1 -416 -60 -15 -29 -18 -53 -14 -145 4 -118 12 -142 58 -169 24 -14 84 -16 524 -16 544 0 539 -1 570 60 13 25 15 101 15 525 0 551 1 543 -65 571 -45 19 -218 18 -262 -1z"/>
</g>
</svg>